<?xml version="1.0" encoding="UTF-8"?><svg id="Torii_Logo" xmlns="http://www.w3.org/2000/svg" viewBox="0 0 500 240"><path id="T" d="M60,80.31v-7.85h68.97v7.85h-30.12v87.23h-8.61v-87.23h-30.24Z" fill="#fff"/><path id="O" d="M176.11,168.81c-8,0-15.1-2-21.31-6-6.21-4-11.07-9.66-14.58-16.97-3.51-7.32-5.26-15.91-5.26-25.78s1.76-18.54,5.3-25.88c3.53-7.34,8.39-13.01,14.58-17.01,6.19-4,13.28-6,21.28-6s15.08,2,21.25,6c6.17,4,11.01,9.67,14.52,17.01,3.51,7.34,5.26,15.96,5.26,25.88s-1.75,18.46-5.26,25.78c-3.51,7.32-8.35,12.97-14.52,16.97-6.17,4-13.25,6-21.25,6ZM176.11,160.71c6.21,0,11.78-1.62,16.72-4.85,4.93-3.23,8.83-7.88,11.68-13.94,2.85-6.06,4.28-13.35,4.28-21.85s-1.43-15.87-4.28-21.95c-2.85-6.08-6.74-10.74-11.68-13.97-4.93-3.23-10.51-4.85-16.72-4.85s-11.79,1.62-16.75,4.85c-4.96,3.23-8.87,7.89-11.74,13.97-2.87,6.08-4.31,13.4-4.31,21.95s1.43,15.74,4.28,21.82c2.85,6.08,6.75,10.74,11.71,13.97,4.95,3.23,10.56,4.85,16.81,4.85Z" fill="#fff"/><path id="R" d="M232.76,167.54v-95.08h30.75c6.76,0,12.4,1.22,16.91,3.67,4.51,2.45,7.92,5.82,10.24,10.11,2.32,4.3,3.48,9.21,3.48,14.74s-1.15,10.41-3.45,14.64c-2.3,4.23-5.71,7.54-10.24,9.92-4.53,2.38-10.13,3.57-16.81,3.57h-26.1v-7.91h25.84c4.98,0,9.1-.83,12.38-2.49,3.27-1.66,5.73-4,7.37-7.02,1.64-3.02,2.46-6.59,2.46-10.72s-.83-7.81-2.49-10.91c-1.66-3.1-4.13-5.51-7.4-7.21-3.28-1.7-7.42-2.55-12.44-2.55h-21.82v87.23h-8.68ZM288.02,167.54l-23.1-42.94h9.83l23.35,42.94h-10.08Z" fill="#fff"/><path id="I" d="M318.63,72.46v95.08h-8.68v-95.08h8.68Z" fill="#fff"/><polygon id="Gate" points="440 72.45 440 167.46 432 167.46 432 80.45 346.48 80.45 346.48 167.46 338.48 167.46 338.48 72.45 440 72.45" fill="#f15d23"/><rect id="Gate_path_-_i" x="385.52" y="102.65" width="8" height="64.81" fill="#fff"/><polygon id="Star" points="395.69 92.57 390.44 92.57 394.18 96.31 393.47 97.01 389.73 93.27 389.73 98.53 388.72 98.53 388.72 93.26 385.03 96.97 384.32 96.27 388.01 92.57 382.79 92.57 382.79 91.57 388.02 91.57 384.35 87.9 385.06 87.2 388.72 90.87 388.72 85.65 389.73 85.65 389.73 90.86 393.43 87.15 394.15 87.85 390.43 91.57 395.69 91.57 395.69 92.57" fill="#f15d23"/></svg>